<?xml version="1.0" encoding="utf-8"?>
<svg width="800px" height="800px" viewBox="0 0 24 24" xmlns="http://www.w3.org/2000/svg" version="1.1">
  <g transform="matrix(0.929418, 0, 0, 0.929418, 0.145235, -1028.617798)" style="transform-origin: 12px 1040.4px;">
    <path d="m12 0c-4.4183 2.3685e-15 -8 3.5817-8 8 0 1.421 0.3816 2.75 1.0312 3.906 0.1079 0.192 0.221 0.381 0.3438 0.563l6.625 11.531 6.625-11.531c0.102-0.151 0.19-0.311 0.281-0.469l0.063-0.094c0.649-1.156 1.031-2.485 1.031-3.906 0-4.4183-3.582-8-8-8zm0 4c2.209 0 4 1.7909 4 4 0 2.209-1.791 4-4 4-2.2091 0-4-1.791-4-4 0-2.2091 1.7909-4 4-4z" style="stroke-width: 1.61391px; fill: rgb(231, 167, 60); stroke: rgb(88, 115, 103);" transform="translate(0 1028.4)"/>
  </g>
</svg>